<svg xmlns="http://www.w3.org/2000/svg" xmlns:xlink="http://www.w3.org/1999/xlink" viewBox="0 0 19.56 19.56"><defs><style>.cls-1{fill:url(#linear-gradient);}</style><linearGradient id="linear-gradient" x1="19.26" y1="0.29" x2="0.29" y2="19.26" gradientUnits="userSpaceOnUse"><stop offset="0" stop-color="#d6c29c"/><stop offset="1" stop-color="#a68445"/></linearGradient></defs><title>ico-close</title><g id="Layer_2" data-name="Layer 2"><g id="Layer_1-2" data-name="Layer 1"><path class="cls-1" d="M11.19,9.78l8.07-8.07a1,1,0,0,0,0-1.42,1,1,0,0,0-1.41,0L9.78,8.36,1.71.29A1,1,0,0,0,.29,1.71L8.36,9.78.29,17.85a1,1,0,0,0,0,1.41,1,1,0,0,0,1.42,0l8.07-8.07,8.07,8.07a1,1,0,0,0,1.41-1.41Z"/></g></g></svg>