<svg xmlns="http://www.w3.org/2000/svg" xmlns:xlink="http://www.w3.org/1999/xlink" viewBox="0 0 13.78 13.77"><defs><style>.cls-1{fill:url(#linear-gradient);}.cls-2{fill:url(#linear-gradient-2);}</style><linearGradient id="linear-gradient" x1="12.04" y1="4.96" x2="4.97" y2="12.03" gradientUnits="userSpaceOnUse"><stop offset="0" stop-color="#d6c29c"/><stop offset="1" stop-color="#a68445"/></linearGradient><linearGradient id="linear-gradient-2" x1="8.81" y1="1.74" x2="1.74" y2="8.81" xlink:href="#linear-gradient"/></defs><title>ico-mais</title><g id="Layer_2" data-name="Layer 2"><g id="Layer_1-2" data-name="Layer 1"><path class="cls-1" d="M6.58,13.64a.4.4,0,0,1-.13-.31V6.88a.45.45,0,0,1,.44-.44h6.45a.45.45,0,0,1,0,.89h-6v6a.45.45,0,0,1-.45.44.42.42,0,0,1-.3-.13"/><path class="cls-2" d="M7.21.13a.43.43,0,0,1,.12.31V6.89a.44.44,0,0,1-.44.44H.44A.45.45,0,0,1,0,6.89a.46.46,0,0,1,.45-.45h6v-6A.45.45,0,0,1,7.21.13"/></g></g></svg>