<svg xmlns="http://www.w3.org/2000/svg" xmlns:xlink="http://www.w3.org/1999/xlink" viewBox="0 0 10 5.44"><defs><style>.cls-1{fill:url(#linear-gradient);}</style><linearGradient id="linear-gradient" x1="7.59" y1="-2.15" x2="2.41" y2="3.04" gradientUnits="userSpaceOnUse"><stop offset="0" stop-color="#d6c29c"/><stop offset="1" stop-color="#a68445"/></linearGradient></defs><title>arrow-down-dourado</title><g id="Layer_2" data-name="Layer 2"><g id="Layer_1-2" data-name="Layer 1"><path class="cls-1" d="M10,.45a.42.42,0,0,1-.13.31L5.31,5.31a.45.45,0,0,1-.63,0L.13.76a.45.45,0,0,1,0-.63.45.45,0,0,1,.63,0L4.66,4a.49.49,0,0,0,.69,0L9.25.14a.44.44,0,0,1,.62,0A.42.42,0,0,1,10,.45"/></g></g></svg>