<svg xmlns="http://www.w3.org/2000/svg" xmlns:xlink="http://www.w3.org/1999/xlink" viewBox="0 0 16.99 17"><defs><style>.cls-1{fill:url(#linear-gradient);}.cls-2{fill:url(#linear-gradient-2);}</style><linearGradient id="linear-gradient" x1="14.75" y1="12.43" x2="12.43" y2="14.76" gradientUnits="userSpaceOnUse"><stop offset="0" stop-color="#d6c29c"/><stop offset="1" stop-color="#a68445"/></linearGradient><linearGradient id="linear-gradient-2" x1="11.38" y1="1.96" x2="1.95" y2="11.38" xlink:href="#linear-gradient"/></defs><title>ico-search</title><g id="Layer_2" data-name="Layer 2"><g id="Layer_1-2" data-name="Layer 1"><path class="cls-1" d="M11.68,9.36,9.36,11.69a.6.6,0,0,1,.76.06L15,16.66A1.15,1.15,0,0,0,16.66,15l-4.91-4.9a.62.62,0,0,1-.07-.77"/><path class="cls-2" d="M6.67,13.33a6.67,6.67,0,1,1,6.66-6.66,6.67,6.67,0,0,1-6.66,6.66M6.67,2a4.67,4.67,0,1,0,4.67,4.67A4.67,4.67,0,0,0,6.67,2"/></g></g></svg>