<svg xmlns="http://www.w3.org/2000/svg" viewBox="0 0 15 15">
    <path fill="#666666" d="M7.5,0A7.51,7.51,0,0,0,1.1,11.42L.34,15l3.13-1.17A7.5,7.5,0,1,0,7.5,0Zm0,14.15A6.65,6.65,0,0,1,3.76,13l-.18-.12-2.09.78L2,11.25l-.1-.14a6.65,6.65,0,1,1,5.59,3Z"></path>
    <path fill="#666666" d="M10.62,7.52a1.34,1.34,0,0,0-.39-.07,1.52,1.52,0,0,0-1.16.8L9,8.4a.4.4,0,0,1-.35.18,2.66,2.66,0,0,1-1.46-.75c-.92-.73-1.25-1.27-1-1.62l.12-.15c.32-.39.81-1,.35-1.68-.19-.35-1-1.51-2-1.51a1.36,1.36,0,0,0-.9.35,3.26,3.26,0,0,0-1,2.37c.08,1.52,1.54,3.2,2.88,4.25A7.6,7.6,0,0,0,9.83,11.7a3.64,3.64,0,0,0,.56,0,3.27,3.27,0,0,0,2-1.56,1.35,1.35,0,0,0,0-1.22A3.14,3.14,0,0,0,10.62,7.52ZM11.67,9.7a2.41,2.41,0,0,1-1.46,1.12c-1,.18-2.65-.48-4.13-1.65s-2.5-2.6-2.55-3.6a2.45,2.45,0,0,1,.75-1.71.56.56,0,0,1,.35-.14c.5,0,1.12.78,1.27,1.07l0,0c.1.14.08.24-.28.68l-.14.16c-.62.79-.25,1.74,1.12,2.82a3.47,3.47,0,0,0,2,.93,1.28,1.28,0,0,0,1-.5l.12-.17c.18-.22.35-.46.49-.46l.11,0h.05a2.36,2.36,0,0,1,1.3.89A.52.52,0,0,1,11.67,9.7Z"></path>
  </svg>