<svg xmlns="http://www.w3.org/2000/svg" xmlns:xlink="http://www.w3.org/1999/xlink" viewBox="0 0 24.2 24.2"><defs><style>.cls-1{fill:url(#linear-gradient);}.cls-2{fill:url(#linear-gradient-2);}.cls-3{fill:url(#linear-gradient-3);}</style><linearGradient id="linear-gradient" x1="22.29" y1="1.91" x2="1.91" y2="22.29" gradientUnits="userSpaceOnUse"><stop offset="0" stop-color="#d6c29c"/><stop offset="1" stop-color="#a68445"/></linearGradient><linearGradient id="linear-gradient-2" x1="16.33" y1="7.87" x2="7.87" y2="16.33" xlink:href="#linear-gradient"/><linearGradient id="linear-gradient-3" x1="20.09" y1="4.26" x2="17.79" y2="6.56" xlink:href="#linear-gradient"/></defs><title>ico-insta-dourado</title><g id="Layer_2" data-name="Layer 2"><g id="Layer_1-2" data-name="Layer 1"><path class="cls-1" d="M6.5,24.2A6.51,6.51,0,0,1,0,17.7V6.5A6.51,6.51,0,0,1,6.5,0H17.7a6.51,6.51,0,0,1,6.5,6.5V17.7a6.51,6.51,0,0,1-6.5,6.5Zm0-22.85A5.16,5.16,0,0,0,1.35,6.5V17.7A5.16,5.16,0,0,0,6.5,22.85H17.7a5.16,5.16,0,0,0,5.15-5.15V6.5A5.16,5.16,0,0,0,17.7,1.35Z"/><path class="cls-2" d="M12.1,18.09a6,6,0,1,1,6-6A6,6,0,0,1,12.1,18.09Zm0-10.63a4.64,4.64,0,1,0,4.64,4.64A4.64,4.64,0,0,0,12.1,7.46Z"/><path class="cls-3" d="M18.94,7h0a1.63,1.63,0,1,1,1.62-1.62A1.62,1.62,0,0,1,18.94,7"/></g></g></svg>