<svg xmlns="http://www.w3.org/2000/svg" xmlns:xlink="http://www.w3.org/1999/xlink" viewBox="0 0 35 28.74"><defs><style>.cls-1{fill:url(#linear-gradient);}</style><linearGradient id="linear-gradient" x1="32.19" y1="-0.32" x2="2.81" y2="29.06" gradientUnits="userSpaceOnUse"><stop offset="0" stop-color="#d6c29c"/><stop offset="1" stop-color="#a68445"/></linearGradient></defs><title>ico-email-dourado</title><g id="Layer_2" data-name="Layer 2"><g id="Layer_1-2" data-name="Layer 1"><path class="cls-1" d="M30.59,0H4.41A4.28,4.28,0,0,0,0,4.41V24.33a4.28,4.28,0,0,0,4.41,4.41H30.59A4.28,4.28,0,0,0,35,24.33V4.41A4.28,4.28,0,0,0,30.59,0ZM4.41,2H30.59A2.21,2.21,0,0,1,33,3.87L17.5,12.94,2,3.87A2.21,2.21,0,0,1,4.41,2ZM30.59,26.76H4.41A2.32,2.32,0,0,1,2,24.33V6.14L17.5,15.23,33,6.14V24.33A2.32,2.32,0,0,1,30.59,26.76Z"/></g></g></svg>