<svg xmlns="http://www.w3.org/2000/svg" xmlns:xlink="http://www.w3.org/1999/xlink" viewBox="0 0 15.06 27"><defs><style>.cls-1{fill:url(#linear-gradient);}</style><linearGradient id="linear-gradient" x1="18.3" y1="3.95" x2="-0.16" y2="22.41" gradientUnits="userSpaceOnUse"><stop offset="0" stop-color="#d6c29c"/><stop offset="1" stop-color="#a68445"/></linearGradient></defs><title>ico-facebokk-dourado</title><g id="Layer_2" data-name="Layer 2"><g id="Layer_1-2" data-name="Layer 1"><path class="cls-1" d="M10.35,1h2.43c.43,0,.86.13,1.28.13v4H11.42a2.09,2.09,0,0,0-.35,0l-.22,0a1.6,1.6,0,0,0-1.37,1.8v3.2H14l-.59,4.53H9.53V26H4.84V14.68H1V10.19H4.84V7.13A11.12,11.12,0,0,1,5,5.4,5,5,0,0,1,7,2a5.83,5.83,0,0,1,3.33-1m0-1a6.8,6.8,0,0,0-3.9,1.22A6.06,6.06,0,0,0,4,5.26a12.61,12.61,0,0,0-.16,1.86V9.19H1a1,1,0,0,0-1,1v4.49a1,1,0,0,0,1,1H3.84V26a1,1,0,0,0,1,1H9.53a1,1,0,0,0,1-1V15.67h2.83a1,1,0,0,0,1-.87l.59-4.53a1,1,0,0,0-1-1.13H10.48V6.94a.66.66,0,0,0,0-.14A.6.6,0,0,1,11,6.13h.08l.13,0,.22,0h2.64a1,1,0,0,0,1-1v-4a1,1,0,0,0-1-1,5,5,0,0,1-.62-.06L12.85,0H10.4l-.05,1V0Z"/></g></g></svg>