<svg xmlns="http://www.w3.org/2000/svg" xmlns:xlink="http://www.w3.org/1999/xlink" viewBox="0 0 31.17 21.35"><defs><style>.cls-1{fill:url(#linear-gradient);}.cls-2{fill:url(#linear-gradient-2);}</style><linearGradient id="linear-gradient" x1="27.31" y1="-1.05" x2="3.86" y2="22.4" gradientUnits="userSpaceOnUse"><stop offset="0" stop-color="#d6c29c"/><stop offset="1" stop-color="#a68445"/></linearGradient><linearGradient id="linear-gradient-2" x1="17.88" y1="6.51" x2="9.55" y2="14.84" xlink:href="#linear-gradient"/></defs><title>ico-youtube-dourado</title><g id="Layer_2" data-name="Layer 2"><g id="Layer_1-2" data-name="Layer 1"><path class="cls-1" d="M26.37,21.35H4.8A4.8,4.8,0,0,1,0,16.55V4.8A4.8,4.8,0,0,1,4.8,0H26.37a4.81,4.81,0,0,1,4.8,4.8V16.55A4.81,4.81,0,0,1,26.37,21.35ZM4.8,2A2.81,2.81,0,0,0,2,4.8V16.55a2.8,2.8,0,0,0,2.8,2.8H26.37a2.8,2.8,0,0,0,2.8-2.8V4.8A2.81,2.81,0,0,0,26.37,2Z"/><path class="cls-2" d="M11.85,16.34a2,2,0,0,1-1-.29,1.9,1.9,0,0,1-.91-1.64V6.94a1.92,1.92,0,0,1,2.79-1.72L20.18,9a1.93,1.93,0,0,1,0,3.45l-7.47,3.74A2,2,0,0,1,11.85,16.34Zm.07-9.28V14.3l7.24-3.62Z"/></g></g></svg>