<svg xmlns="http://www.w3.org/2000/svg" xmlns:xlink="http://www.w3.org/1999/xlink" viewBox="0 0 17.61 22.73"><defs><style>.cls-1{fill:url(#linear-gradient);}</style><linearGradient id="linear-gradient" x1="15.66" y1="3.21" x2="1.98" y2="16.89" gradientUnits="userSpaceOnUse"><stop offset="0" stop-color="#d6c29c"/><stop offset="1" stop-color="#a68445"/></linearGradient></defs><title>ico-local-dourado</title><g id="Layer_2" data-name="Layer 2"><g id="Layer_1-2" data-name="Layer 1"><path class="cls-1" d="M8.8,22.73a2.36,2.36,0,0,1-2-1.09L1.3,13A7.82,7.82,0,0,1,0,8.64,9,9,0,0,1,8.46,0a8.76,8.76,0,0,1,6.45,2.45h0a8.74,8.74,0,0,1,2.7,6.34A7.92,7.92,0,0,1,16.32,13L10.8,21.64A2.38,2.38,0,0,1,8.8,22.73ZM8.8,1.2H8.51A7.71,7.71,0,0,0,1.2,8.58a6.79,6.79,0,0,0,1.11,3.8L7.82,21a1.22,1.22,0,0,0,2,0l5.52-8.63a6.78,6.78,0,0,0,1.1-3.56,7.53,7.53,0,0,0-2.33-5.47h0A7.55,7.55,0,0,0,8.8,1.2Zm0,12.55A4.95,4.95,0,1,1,13.75,8.8,5,5,0,0,1,8.8,13.75Zm0-8.69A3.75,3.75,0,1,0,12.55,8.8,3.75,3.75,0,0,0,8.8,5.06Z"/></g></g></svg>