<svg id="svg-whatsapp"
    xmlns="http://www.w3.org/2000/svg"
    xmlns:xlink="http://www.w3.org/1999/xlink" viewBox="0 0 25 25">
    <defs>
        <style>.cls-1{fill:url(#svg-whatsapp-linear-gradient);}.cls-2{fill:url(#svg-whatsapp-linear-gradient-2);}</style>
        <linearGradient id="svg-whatsapp-linear-gradient" x1="21.33" y1="3.67" x2="0.28" y2="24.72" gradientUnits="userSpaceOnUse">
            <stop offset="0" stop-color="#d6c29c"/>
            <stop offset="1" stop-color="#a68445"/>
        </linearGradient>
        <linearGradient id="svg-whatsapp-linear-gradient-2" x1="15.45" y1="9.23" x2="8.68" y2="16" xlink:href="#svg-whatsapp-linear-gradient"/>
    </defs>
    <path class="cls-1" d="M12.5,0A12.5,12.5,0,0,0,1.84,19L.56,25l5.23-1.95A12.39,12.39,0,0,0,12.5,25a12.5,12.5,0,0,0,0-25Zm0,23.58a11,11,0,0,1-6.23-1.91l-.3-.2-3.49,1.3.86-4-.16-.24a11.09,11.09,0,1,1,9.32,5.07Z"/>
    <path class="cls-2" d="M17.7,12.54a1.85,1.85,0,0,0-.64-.12,2.57,2.57,0,0,0-1.95,1.33c-.06.09-.13.17-.19.25a.68.68,0,0,1-.59.3,4.44,4.44,0,0,1-2.42-1.25c-1.54-1.21-2.09-2.12-1.63-2.71l.21-.25c.53-.64,1.34-1.62.58-2.79-.32-.59-1.68-2.52-3.36-2.52a2.27,2.27,0,0,0-1.49.58,5.48,5.48,0,0,0-1.75,4C4.6,11.86,7,14.64,9.26,16.4c2.45,1.94,5.11,3.1,7.12,3.1a5,5,0,0,0,.93-.09,5.51,5.51,0,0,0,3.4-2.6,2.25,2.25,0,0,0,.06-2A5.22,5.22,0,0,0,17.7,12.54Zm1.75,3.63A4.06,4.06,0,0,1,17,18c-1.67.31-4.41-.79-6.87-2.74S6,11,5.89,9.28A4,4,0,0,1,7.13,6.44a.89.89,0,0,1,.58-.24C8.55,6.2,9.58,7.49,9.83,8l0,.08c.17.24.13.41-.47,1.13l-.23.28c-1,1.32-.41,2.9,1.86,4.69a5.7,5.7,0,0,0,3.3,1.55,2.12,2.12,0,0,0,1.7-.83l.21-.28c.29-.37.58-.76.82-.76a.45.45,0,0,1,.18,0l.08,0a4,4,0,0,1,2.17,1.48A.89.89,0,0,1,19.45,16.17Z"/>
</svg>