<svg xmlns="http://www.w3.org/2000/svg" xmlns:xlink="http://www.w3.org/1999/xlink" viewBox="0 0 35 32.28"><defs><style>.cls-1{fill:url(#linear-gradient);}</style><linearGradient id="linear-gradient" x1="22.74" y1="10.62" x2="9.09" y2="24.27" gradientUnits="userSpaceOnUse"><stop offset="0" stop-color="#d6c29c"/><stop offset="1" stop-color="#a68445"/></linearGradient></defs><title>ico-telefone-dourado</title><g id="Layer_2" data-name="Layer 2"><g id="Layer_1-2" data-name="Layer 1"><path class="cls-1" d="M25.15,32.27c-4.36-.17-10.07-2.93-15.27-7.4C5.14,20.84.06,14.59,0,9.11A11.54,11.54,0,0,1,4,1a4.36,4.36,0,0,1,2.9-1c3.3.13,6,4.12,6.66,5.51,1.25,2.09.09,3.67-1.43,5.37l-.49.56c-2.15,2.51,2.1,6.14,3.5,7.33,2.41,2.06,4.37,3.13,5.82,3.19a2.32,2.32,0,0,0,2-.88c.15-.17.3-.36.45-.54,1-1.25,2.15-2.63,3.88-2.56a3.34,3.34,0,0,1,1.16.26c1.31.41,5.14,2.13,6.29,4.91A4.31,4.31,0,0,1,34.39,27a11.49,11.49,0,0,1-7.34,5.17A9.87,9.87,0,0,1,25.15,32.27ZM6.79,1.62A2.79,2.79,0,0,0,5,2.28,9.9,9.9,0,0,0,1.62,9.14c0,4,3.7,9.73,9.32,14.5,4.85,4.17,10.34,6.85,14.32,7a7.43,7.43,0,0,0,1.51-.07A9.79,9.79,0,0,0,33,26.21a2.66,2.66,0,0,0,.2-2.44c-.89-2.14-4.35-3.72-5.25-4l-.1,0a2,2,0,0,0-.67-.16c-.92,0-1.7.92-2.52,1.93-.18.21-.34.41-.51.6a4,4,0,0,1-3.27,1.45C19,23.51,16.78,22.34,14,20c-4.56-3.9-5.79-7.14-3.67-9.63l.51-.58c1.28-1.43,2-2.3,1.25-3.44a.59.59,0,0,1,0-.08C11.62,5.27,9.23,1.72,6.79,1.62Z"/></g></g></svg>