<svg xmlns="http://www.w3.org/2000/svg" viewBox="0 0 156.05 35"><defs><style>.cls-1{fill:#ccc;}</style></defs><title>logo-promentor</title><g id="Layer_2" data-name="Layer 2"><g id="Layer_1-2" data-name="Layer 1"><path class="cls-1" d="M110.19,17.81l-2.87,3.83H107l-2.79-3.83V24.2h-1.65V15.4h1.91l2.76,3.79L110,15.4h1.91v8.8h-1.65ZM120,24.17h-6.58V15.36H120V17H115v2h4.75v1.53H115v2H120Zm7.31-8.81h1.65v8.81h-1l-4.63-5.94v5.94H121.6V15.36h1.34l4.28,5.44V15.36Zm5.44,1.53h-2.8V15.4h7.24v1.49h-2.8v7.28H132.7Zm14.09,2.91a4.35,4.35,0,0,1-4.52,4.56,4.27,4.27,0,0,1-4.52-4.52,4.52,4.52,0,1,1,9,0m-7.39,0a2.87,2.87,0,1,0,5.74,0,2.88,2.88,0,1,0-5.74,0m16.42,4.33h-2l-2.57-3h-1.6v3H148V15.36h4.17a2.91,2.91,0,0,1,3.18,2.91A2.6,2.6,0,0,1,153.14,21l2.68,3Zm-6.12-7.24v2.8h2.52a1.4,1.4,0,0,0,.19-2.8Zm-54.4-.27a2.89,2.89,0,0,0-2.91,3.18,2.89,2.89,0,1,0,5.78,0,2.88,2.88,0,0,0-2.87-3.14m-6.93,1.65A1.36,1.36,0,0,0,87,16.89H84.31v2.84h2.53a1.39,1.39,0,0,0,1.53-1.23ZM78.3,16.89H75.77V20h2.49a1.57,1.57,0,1,0,0-3.14"/><path class="cls-1" d="M100.77,8,87.18.09a.87.87,0,0,0-.77,0L72.82,8a.75.75,0,0,0-.38.65v15.7a.78.78,0,0,0,.38.65l9.65,5.59v3.67a.74.74,0,0,0,.73.77.94.94,0,0,0,.42-.11L100.77,25a.74.74,0,0,0,.38-.65V8.62a.75.75,0,0,0-.38-.65M78.3,21.56H75.77v2.61H74.13V15.36H78.3a3.1,3.1,0,1,1,0,6.2m15-7.85,3.9-.68a.73.73,0,1,1,0,1.45h-3.9c-.39,0-.39-.77,0-.77M90.47,24.17h-2l-2.56-3H84.31v3H82.66V15.32h4.21a2.91,2.91,0,0,1,3.18,2.91A2.59,2.59,0,0,1,87.83,21l2.68,3Zm4.83.23a4.28,4.28,0,0,1-4.52-4.56,4.52,4.52,0,1,1,9,0A4.34,4.34,0,0,1,95.3,24.4m27,5h-.69V25.77h.69Zm4.28-3.64v3.64h-.34a.15.15,0,0,1-.12,0s-.07,0-.11-.07l-1.92-2.42v2.53h-.61V25.77h.46l0,0,0,0,1.91,2.45V25.77Zm1.92.54v1.07h1.37v.54h-1.37v1.49h-.69V25.77h2.29v.54Zm6,1.26a2.15,2.15,0,0,1-.12.73,1.54,1.54,0,0,1-.38.58,1.63,1.63,0,0,1-.57.38,2,2,0,0,1-1.5,0,1.54,1.54,0,0,1-.57-.38,1.76,1.76,0,0,1-.38-.58,1.92,1.92,0,0,1,0-1.49,1.43,1.43,0,0,1,.38-.58,2,2,0,0,1,.57-.38,1.8,1.8,0,0,1,.77-.15,3.21,3.21,0,0,1,.53.07,2.07,2.07,0,0,1,.46.2,1.2,1.2,0,0,1,.65.65,1.66,1.66,0,0,1,.19.46,2.91,2.91,0,0,0,0,.49m-.69,0a2.43,2.43,0,0,0-.08-.53.83.83,0,0,0-.23-.42,1.61,1.61,0,0,0-.34-.27,1.32,1.32,0,0,0-1,0,1.05,1.05,0,0,0-.61.69,1.64,1.64,0,0,0,0,1.07,1.1,1.1,0,0,0,.23.42,1.53,1.53,0,0,0,.38.27,1.44,1.44,0,0,0,1,0,.62.62,0,0,0,.34-.27.87.87,0,0,0,.23-.42,2.19,2.19,0,0,0,.08-.54m4.36,1.23h0l.11.11-.22.23a1.12,1.12,0,0,1-.27.16l-.35.11a1.36,1.36,0,0,1-.42,0,2.09,2.09,0,0,1-.69-.12,1.62,1.62,0,0,1-.53-.38,1.37,1.37,0,0,1-.35-.57,2.7,2.7,0,0,1-.11-.77,2.43,2.43,0,0,1,.11-.73,1.37,1.37,0,0,1,.35-.57,1.62,1.62,0,0,1,.53-.38,2.16,2.16,0,0,1,.69-.16,1.71,1.71,0,0,1,.65.12,2.45,2.45,0,0,1,.5.3l-.08.12s0,0-.07,0-.08,0-.12,0-.11-.08-.19-.12l-.31-.11a1.46,1.46,0,0,0-.42,0,1.32,1.32,0,0,0-.57.12,1.41,1.41,0,0,0-.46.3,1.55,1.55,0,0,0-.31.5,2.05,2.05,0,0,0,0,1.34,1.55,1.55,0,0,0,.31.5,1,1,0,0,0,.46.3,1.46,1.46,0,0,0,.57.12,1,1,0,0,0,.35,0,.75.75,0,0,0,.27-.08l.23-.11c.07,0,.15-.11.23-.15Zm3.37.38v.23h-2.1V25.85h2.14V26H139.7V27.5h1.57v.23H139.7v1.49h1.84Zm3.94-3.33v3.56h-.15l0,0L143,26.27v3.14h-.23V25.85h.15l0,0,2.29,3.1V25.85Zm3.79.19H148v3.33h-.27V26h-1.26v-.23h2.76Zm3.14,3.14v.23h-2.14V25.85h2.14V26h-1.87V27.5h1.57v.23h-1.57v1.49h1.87Zm3.64.23h-.31s0,0,0,0l-1.15-1.45,0,0,0,0h-.65v1.61h-.23V25.89h.92a1.58,1.58,0,0,1,.92.23.89.89,0,0,1,.3.69,1.27,1.27,0,0,1-.07.38,1,1,0,0,1-.19.31,1.08,1.08,0,0,1-.31.19l-.42.11.11.12Zm-1.57-1.8a1.5,1.5,0,0,0,.42,0,.64.64,0,0,0,.31-.15.77.77,0,0,0,.19-.27,1.05,1.05,0,0,0,.08-.34.71.71,0,0,0-.27-.58,1.25,1.25,0,0,0-.73-.19h-.65v1.57Z"/><path class="cls-1" d="M5.43,14.63a2.45,2.45,0,0,1,.87,2,2.46,2.46,0,0,1-.87,2A3.65,3.65,0,0,1,3,19.34H1.11v2.37H0V13.9H3A3.59,3.59,0,0,1,5.43,14.63Zm-.8,3.29a1.57,1.57,0,0,0,.55-1.3,1.6,1.6,0,0,0-.55-1.3A2.54,2.54,0,0,0,3,14.87H1.11v3.5H3A2.54,2.54,0,0,0,4.63,17.92Z"/><path class="cls-1" d="M8.71,21.38a2.83,2.83,0,0,1-1.1-1.07,3,3,0,0,1-.4-1.56,3,3,0,0,1,.4-1.55,2.7,2.7,0,0,1,1.1-1.07,3.16,3.16,0,0,1,1.58-.39,3.19,3.19,0,0,1,1.58.39A2.8,2.8,0,0,1,13,17.2a3.05,3.05,0,0,1,.39,1.55A3.11,3.11,0,0,1,13,20.31a2.94,2.94,0,0,1-1.09,1.07,3.19,3.19,0,0,1-1.58.39A3.16,3.16,0,0,1,8.71,21.38Zm2.6-.81a1.78,1.78,0,0,0,.71-.73,2.28,2.28,0,0,0,.25-1.09A2.21,2.21,0,0,0,12,17.67a1.78,1.78,0,0,0-.71-.73,2.13,2.13,0,0,0-2,0,1.78,1.78,0,0,0-.71.73,2.11,2.11,0,0,0-.27,1.08,2.18,2.18,0,0,0,.27,1.09,1.78,1.78,0,0,0,.71.73,2.06,2.06,0,0,0,2,0Z"/><path class="cls-1" d="M23.61,15.8,21.4,21.71h-1l-1.71-4.48-1.73,4.48h-1l-2.2-5.91h1l1.71,4.7,1.79-4.7h.9l1.75,4.72,1.76-4.72Z"/><path class="cls-1" d="M29.84,19.11H25.05a1.84,1.84,0,0,0,.68,1.25,2.23,2.23,0,0,0,1.46.48,2.2,2.2,0,0,0,1.71-.72l.59.69a2.6,2.6,0,0,1-1,.72,3.81,3.81,0,0,1-3-.14,2.8,2.8,0,0,1-1.13-1.08A3.11,3.11,0,0,1,24,18.75a3.2,3.2,0,0,1,.38-1.55,2.73,2.73,0,0,1,1.06-1.07,3,3,0,0,1,1.52-.39,2.9,2.9,0,0,1,1.51.39,2.62,2.62,0,0,1,1,1.07,3.28,3.28,0,0,1,.38,1.59A2.23,2.23,0,0,1,29.84,19.11Zm-4.18-2a1.89,1.89,0,0,0-.61,1.23h3.79a1.89,1.89,0,0,0-.61-1.22,1.8,1.8,0,0,0-1.29-.47A1.83,1.83,0,0,0,25.66,17.11Z"/><path class="cls-1" d="M33.2,16a2.93,2.93,0,0,1,1.32-.27v1h-.24a1.79,1.79,0,0,0-1.37.52,2,2,0,0,0-.49,1.47v2.95H31.35V15.8h1v1A1.85,1.85,0,0,1,33.2,16Z"/><path class="cls-1" d="M41.1,19.11H36.31A1.84,1.84,0,0,0,37,20.36a2.23,2.23,0,0,0,1.46.48,2.18,2.18,0,0,0,1.7-.72l.6.69a2.67,2.67,0,0,1-1,.72,3.56,3.56,0,0,1-1.34.24,3.59,3.59,0,0,1-1.66-.38,2.84,2.84,0,0,1-1.12-1.08,3.11,3.11,0,0,1-.39-1.56,3.2,3.2,0,0,1,.38-1.55,2.73,2.73,0,0,1,1.06-1.07,3,3,0,0,1,1.52-.39,2.9,2.9,0,0,1,1.51.39,2.62,2.62,0,0,1,1,1.07,3.28,3.28,0,0,1,.37,1.59A2,2,0,0,1,41.1,19.11Zm-4.18-2a1.89,1.89,0,0,0-.61,1.23H40.1a1.89,1.89,0,0,0-.61-1.22,2,2,0,0,0-2.57,0Z"/><path class="cls-1" d="M48.18,13.43v8.28h-1v-.94a2.29,2.29,0,0,1-.91.75,2.77,2.77,0,0,1-1.2.25,3,3,0,0,1-1.54-.38,2.73,2.73,0,0,1-1.07-1.06,3.24,3.24,0,0,1-.38-1.58,3.2,3.2,0,0,1,.38-1.57,2.79,2.79,0,0,1,1.07-1.06,3.14,3.14,0,0,1,1.54-.38,2.85,2.85,0,0,1,1.17.24,2.36,2.36,0,0,1,.89.71V13.43Zm-2,7.14a1.81,1.81,0,0,0,.72-.73,2.28,2.28,0,0,0,.25-1.09,2.21,2.21,0,0,0-.25-1.08,1.81,1.81,0,0,0-.72-.73,2.11,2.11,0,0,0-2,0,1.87,1.87,0,0,0-.72.73,2.21,2.21,0,0,0-.26,1.08,2.28,2.28,0,0,0,.26,1.09,1.87,1.87,0,0,0,.72.73,2,2,0,0,0,2,0Z"/><path class="cls-1" d="M57.88,16.12a2.7,2.7,0,0,1,1.06,1.06,3.1,3.1,0,0,1,.39,1.57,3.14,3.14,0,0,1-.39,1.58,2.64,2.64,0,0,1-1.06,1.06,3,3,0,0,1-1.54.38,2.77,2.77,0,0,1-1.2-.25,2.29,2.29,0,0,1-.91-.75v.94h-1V13.43h1.07v3.26a2.29,2.29,0,0,1,.89-.71,2.85,2.85,0,0,1,1.17-.24A3.14,3.14,0,0,1,57.88,16.12Zm-.61,4.45a1.78,1.78,0,0,0,.71-.73,2.18,2.18,0,0,0,.27-1.09A2.11,2.11,0,0,0,58,17.67a1.78,1.78,0,0,0-.71-.73,2.11,2.11,0,0,0-2,0,1.75,1.75,0,0,0-.72.73,2.21,2.21,0,0,0-.25,1.08,2.28,2.28,0,0,0,.25,1.09,1.75,1.75,0,0,0,.72.73,2,2,0,0,0,2,0Z"/><path class="cls-1" d="M65.87,15.8,63,22.3a3,3,0,0,1-.89,1.27,2.05,2.05,0,0,1-1.22.37,2.64,2.64,0,0,1-.84-.14,1.85,1.85,0,0,1-.68-.41l.46-.8A1.48,1.48,0,0,0,60.9,23a1,1,0,0,0,.65-.2,1.86,1.86,0,0,0,.48-.71l.19-.41-2.61-5.9h1.11l2.06,4.72,2-4.72Z"/><path class="cls-1" d="M66.67,17.05a.76.76,0,0,1-.22-.55.75.75,0,0,1,.76-.76.7.7,0,0,1,.52.21.78.78,0,0,1,.22.55.76.76,0,0,1-.22.55.7.7,0,0,1-.52.22A.73.73,0,0,1,66.67,17.05Zm0,4.51a.79.79,0,0,1-.22-.56.77.77,0,0,1,.22-.54.76.76,0,0,1,.54-.21.7.7,0,0,1,.52.21A.74.74,0,0,1,68,21a.79.79,0,0,1-.22.56.73.73,0,0,1-.52.21A.76.76,0,0,1,66.67,21.56Z"/></g></g></svg>