<?xml version="1.0" standalone="no"?>
<!DOCTYPE svg PUBLIC "-//W3C//DTD SVG 1.1//EN" "http://www.w3.org/Graphics/SVG/1.1/DTD/svg11.dtd">
<svg xmlns="http://www.w3.org/2000/svg" id="Layer_2" viewBox="0 0 202.44 44" width="202.44000244140625" height="44"><g id="Layer_2-2"><g id="Layer_1-2"><path d="M66.09.75l-24.08,41.38L22.86,8.77l-.22-.38h-7.07l.62,1.12,8.39,14.99.6,1.07.68-1.01,1.47-2.19,4.93,8.22-7.02,11.93L1.29.75h26.5l13.55,23.54.65,1.13.65-1.14,8.44-14.78.64-1.12h-7.01l-.22.38-4.38,7.78-4.91-8.55,3.81-7.26h27.05M67.39,0h-28.81l-4.22,8.02,5.77,10.05,5.03-8.93h5.28l-8.44,14.78L28.23,0H0l25.24,44,7.9-13.43-5.77-9.61-2.13,3.17-8.39-14.99h5.36l19.79,34.49L67.39,0h0Z" fill="#333"/></g><rect x="73.52" width=".75" height="44" fill="#333"/><path d="M85.53,36.75v-.43h.9c.68,0,1.18-.09,1.5-.26.31-.17.52-.51.62-1,.1-.5.15-1.26.15-2.29V10.12c0-1-.05-1.74-.15-2.22-.1-.48-.31-.81-.62-.98-.31-.17-.8-.26-1.45-.26h-.94v-.43h8.76c2.88,0,4.98.73,6.3,2.18,1.33,1.45,1.99,3.66,1.99,6.63,0,1.25-.15,2.46-.45,3.61-.3,1.15-.78,2.19-1.45,3.1-.67.91-1.58,1.65-2.71,2.2s-2.52.83-4.15.83h-2.52v8.08c0,1,.05,1.75.15,2.24.1.5.31.83.64.98.33.16.8.24,1.43.24h1.54v.43h-9.53ZM93.82,24.36c1.2,0,2.19-.25,2.97-.75.78-.5,1.41-1.17,1.88-2.01.47-.84.8-1.82.98-2.93.18-1.11.28-2.31.28-3.59,0-1.99-.19-3.61-.56-4.85-.37-1.24-.98-2.14-1.84-2.71-.85-.57-1.98-.85-3.38-.85h-2.86v17.7h2.52Z" fill="#333"/><path d="M108.72,37.18c-1.48,0-2.68-.54-3.59-1.62-.91-1.08-1.37-2.69-1.37-4.83s.62-3.79,1.86-4.87,3.14-1.68,5.71-1.8l2.74-.13v-3.63c0-1.6-.11-2.85-.34-3.76-.23-.91-.59-1.57-1.09-1.97s-1.16-.6-1.99-.6c-1.17,0-2.03.44-2.59,1.33s-.83,2.45-.83,4.7c-.68,0-1.21-.18-1.58-.53-.37-.36-.56-.89-.56-1.6,0-.85.24-1.6.71-2.24s1.15-1.15,2.05-1.52c.9-.37,1.92-.56,3.06-.56,1.91,0,3.34.56,4.3,1.67.95,1.11,1.43,3.03,1.43,5.77v11.93c0,1,.06,1.74.19,2.22.13.48.34.81.64.96.3.16.73.24,1.3.24h.04v.43h-4.66v-4.45h-.08c-.29,1.05-.69,1.94-1.22,2.65-.53.71-1.13,1.26-1.82,1.65-.68.38-1.45.58-2.31.58ZM109.45,36.37c.91,0,1.72-.33,2.42-.98.7-.66,1.24-1.55,1.62-2.67.38-1.13.58-2.4.58-3.83v-4.53l-2.27.13c-2.05.11-3.48.7-4.3,1.75-.81,1.05-1.22,2.56-1.22,4.53,0,1.25.12,2.29.36,3.12.24.83.58,1.45,1.03,1.86.44.41,1.03.62,1.77.62Z" fill="#333"/><path d="M119.73,36.75v-.43h.04c.83,0,1.44-.06,1.84-.19.4-.13.66-.42.77-.88.11-.46.17-1.14.17-2.05v-15.82c0-.97-.06-1.67-.17-2.09-.11-.43-.37-.71-.77-.83-.4-.13-1.03-.19-1.88-.19h-.08v-.43h5.43v5.17h.08c.29-1.05.62-2,1-2.84.38-.84.88-1.5,1.5-1.99.61-.48,1.39-.73,2.33-.73,1.03,0,1.8.27,2.31.81.51.54.77,1.23.77,2.05,0,.71-.18,1.28-.53,1.69-.36.41-.88.62-1.56.62,0-1.6-.12-2.7-.36-3.31s-.72-.92-1.43-.92c-.6,0-1.15.22-1.67.66-.51.44-.94,1.09-1.28,1.94-.34.85-.61,1.9-.81,3.14-.2,1.24-.3,2.67-.3,4.3v8.76c0,.91.07,1.6.21,2.05.14.46.43.75.86.88.43.13,1.05.19,1.88.19h.47v.43h-8.81Z" fill="#333"/><path d="M140.34,37.18c-1.54,0-2.67-.48-3.4-1.43-.73-.95-1.09-2.64-1.09-5.07V14.27h-2.57v-.43c.8-.03,1.47-.13,2.01-.3.54-.17.97-.41,1.28-.73.48-.48.82-1.08,1-1.8.19-.71.32-1.5.41-2.35h.43v5.17h4.32v.43h-4.32v17.35c0,1.94.21,3.25.64,3.93.43.68,1.1,1.03,2.01,1.03.31,0,.62-.02.92-.06.3-.04.66-.11,1.09-.19v.43c-.34.11-.76.21-1.24.3-.49.09-.98.13-1.5.13Z" fill="#333"/><path d="M144.01,36.75v-.43h.26c.83,0,1.43-.07,1.82-.21.38-.14.64-.44.77-.9.13-.46.19-1.15.19-2.09v-15.73c0-.97-.06-1.67-.19-2.09-.13-.43-.38-.71-.75-.83-.37-.13-.97-.19-1.79-.19h-.17v-.43h5.43v4.23h.08c.26-.91.61-1.71,1.05-2.39.44-.68,1-1.21,1.69-1.58.68-.37,1.5-.56,2.44-.56,1.97,0,3.38.62,4.25,1.86.87,1.24,1.3,3.21,1.3,5.92v11.8c0,.94.06,1.64.19,2.09.13.46.38.76.75.9.37.14.93.21,1.67.21h.17v.43h-5.34v-15.69c0-2.19-.27-3.86-.81-5-.54-1.14-1.48-1.71-2.82-1.71-.85,0-1.63.27-2.33.81-.7.54-1.25,1.39-1.67,2.54s-.62,2.7-.62,4.64v10.86c0,.91.06,1.59.19,2.03.13.44.38.73.77.88.38.14.98.21,1.77.21h.21v.43h-8.51Z" fill="#333"/><path d="M170.15,37.18c-2.39,0-4.24-1.02-5.54-3.06-1.3-2.04-1.95-4.89-1.95-8.57,0-4.05.62-7.06,1.86-9.04,1.24-1.98,2.98-2.97,5.24-2.97s3.85.94,4.98,2.82,1.69,4.47,1.69,7.78v.68h-11.24c0,2.82.21,5.11.64,6.86s1.04,3.03,1.84,3.83c.8.8,1.75,1.2,2.86,1.2.83,0,1.54-.18,2.16-.56.61-.37,1.1-.91,1.47-1.62.37-.71.63-1.57.77-2.56.29.09.5.22.64.41.14.19.21.42.21.71,0,.54-.21,1.13-.62,1.77-.41.64-1.04,1.19-1.88,1.65-.84.46-1.89.68-3.14.68ZM173.91,24.4c-.03-2.36-.17-4.32-.43-5.86-.26-1.54-.68-2.69-1.28-3.44-.6-.75-1.41-1.13-2.44-1.13-.97,0-1.79.37-2.46,1.11-.67.74-1.18,1.88-1.52,3.42-.34,1.54-.53,3.51-.56,5.9h8.68Z" fill="#333"/><path d="M177.03,36.75v-.43h.04c.83,0,1.44-.06,1.84-.19.4-.13.66-.42.77-.88.11-.46.17-1.14.17-2.05v-15.82c0-.97-.06-1.67-.17-2.09-.11-.43-.37-.71-.77-.83-.4-.13-1.03-.19-1.88-.19h-.09v-.43h5.43v5.17h.09c.28-1.05.62-2,1-2.84.38-.84.88-1.5,1.5-1.99.61-.48,1.39-.73,2.33-.73,1.03,0,1.79.27,2.31.81.51.54.77,1.23.77,2.05,0,.71-.18,1.28-.53,1.69s-.88.62-1.56.62c0-1.6-.12-2.7-.36-3.31-.24-.61-.72-.92-1.43-.92-.6,0-1.15.22-1.67.66-.51.44-.94,1.09-1.28,1.94-.34.85-.61,1.9-.81,3.14s-.3,2.67-.3,4.3v8.76c0,.91.07,1.6.21,2.05.14.46.43.75.85.88.43.13,1.05.19,1.88.19h.47v.43h-8.81Z" fill="#333"/><path d="M196.37,37.18c-1.31,0-2.37-.23-3.18-.71-.81-.47-1.4-1.05-1.75-1.75-.36-.7-.53-1.4-.53-2.12,0-.51.08-.93.24-1.26.16-.33.37-.57.64-.73.27-.16.55-.24.83-.24,0,1.48.13,2.69.38,3.61.26.93.67,1.62,1.24,2.07.57.46,1.31.68,2.22.68,1.28,0,2.29-.41,3.01-1.24.73-.83,1.09-2.07,1.09-3.72,0-.91-.13-1.66-.38-2.24-.26-.58-.67-1.13-1.24-1.65-.57-.51-1.35-1.08-2.35-1.71-1-.66-1.88-1.27-2.63-1.86-.76-.58-1.35-1.27-1.77-2.07-.43-.8-.64-1.8-.64-2.99,0-1.82.49-3.23,1.47-4.23.98-1,2.33-1.5,4.04-1.5,1.08,0,1.99.18,2.71.53.73.36,1.28.83,1.67,1.41.38.58.58,1.28.58,2.07,0,.66-.15,1.17-.45,1.54-.3.37-.73.56-1.3.56,0-1.99-.25-3.44-.75-4.34-.5-.9-1.33-1.35-2.5-1.35-.77,0-1.42.18-1.94.53-.53.36-.93.85-1.2,1.5-.27.64-.41,1.4-.41,2.29s.16,1.69.47,2.33c.31.64.78,1.23,1.41,1.75.63.53,1.42,1.1,2.39,1.73.83.46,1.6.96,2.33,1.52s1.3,1.25,1.73,2.07c.43.83.64,1.9.64,3.21,0,1.94-.52,3.47-1.56,4.6-1.04,1.13-2.54,1.69-4.51,1.69Z" fill="#333"/></g></svg>