<svg xmlns="http://www.w3.org/2000/svg" viewBox="0 0 15 13.83">
  <path fill="#fff" d="M10.78,13.83c-1.87-.07-4.32-1.26-6.54-3.17C2.2,8.93,0,6.25,0,3.9A4.93,4.93,0,0,1,1.7.43,1.84,1.84,0,0,1,2.94,0C4.35.06,5.5,1.77,5.8,2.36c.53.9,0,1.57-.62,2.3L5,4.9C4.05,6,5.87,7.53,6.47,8A4.68,4.68,0,0,0,9,9.41,1,1,0,0,0,9.81,9L10,8.8c.44-.53.92-1.12,1.66-1.09a1.29,1.29,0,0,1,.5.11,4.72,4.72,0,0,1,2.7,2.1,1.86,1.86,0,0,1-.12,1.65,4.91,4.91,0,0,1-3.15,2.22A4.31,4.31,0,0,1,10.78,13.83ZM2.91.7A1.16,1.16,0,0,0,2.13,1,4.26,4.26,0,0,0,.69,3.92c0,1.73,1.59,4.17,4,6.21,2.08,1.79,4.43,2.94,6.14,3a3.35,3.35,0,0,0,.64,0,4.18,4.18,0,0,0,2.66-1.87,1.14,1.14,0,0,0,.09-1A4.18,4.18,0,0,0,12,8.48h-.05a.77.77,0,0,0-.28-.07c-.4,0-.73.39-1.09.83l-.21.26a1.73,1.73,0,0,1-1.4.62A5.27,5.27,0,0,1,6,8.57c-2-1.67-2.49-3.06-1.58-4.12l.22-.25c.55-.61.85-1,.54-1.47,0,0,0,0,0,0C5,2.26,4,.74,2.91.7Z"></path>
</svg>