<svg xmlns="http://www.w3.org/2000/svg" viewBox="0 0 27 27.13"><defs><style>.cls-1{fill:#fff;}</style></defs><title>chat-fixo-whatsapp</title><g id="Layer_2" data-name="Layer 2"><g id="Layer_1-2" data-name="Layer 1"><path class="cls-1" d="M26,8.15a.59.59,0,0,0,0-.08L25,6.24c-.11-.17-.22-.34-.34-.51A13.42,13.42,0,0,0,10.8.3,13,13,0,0,0,4.37,3.69a13,13,0,0,0-4.1,8.24A13.16,13.16,0,0,0,1.9,20,.61.61,0,0,1,2,20.5c-.4,1.24-.81,2.48-1.19,3.72C.53,25,.25,25.76,0,26.54a.46.46,0,0,0,.57.57l6.15-1.93a.69.69,0,0,1,.58.05,13.25,13.25,0,0,0,8.34,1.36,13,13,0,0,0,8.56-5.08c3-3.91,3.51-8.43,1.82-13.36m-7,15a10.82,10.82,0,0,1-6.45,1.36,11.22,11.22,0,0,1-4.76-1.57.7.7,0,0,0-.64-.08L3.5,24a.33.33,0,0,1-.28,0c.38-1.29.74-2.58,1.13-3.86a.67.67,0,0,0-.1-.64,10.84,10.84,0,0,1-1.79-7.14,11.24,11.24,0,0,1,8.6-9.85c.26-.06.54-.11.81-.15A11.18,11.18,0,0,1,24.3,10.22c.05.16.09.32.13.48A11.13,11.13,0,0,1,19,23.14"/><path class="cls-1" d="M9.58,7.3a.85.85,0,0,1,.94.58c.35.79.71,1.57,1.05,2.36a.58.58,0,0,1-.08.63L10.66,12a.49.49,0,0,0,0,.66,13,13,0,0,0,4.12,3.81c.74.42.74.41,1.27-.23l.78-.92a.66.66,0,0,1,.83-.19A18.37,18.37,0,0,1,20,16.25c.45.25.39.6.31,1a2.85,2.85,0,0,1-2.95,2.26,11,11,0,0,1-4.05-1.32A13.15,13.15,0,0,1,8.05,13,5.06,5.06,0,0,1,7.81,8.5,1.79,1.79,0,0,1,9.58,7.3"/></g></g></svg>