<svg xmlns="http://www.w3.org/2000/svg" xmlns:xlink="http://www.w3.org/1999/xlink" viewBox="0 0 57.8 59.8"><defs><style>.cls-1{fill:url(#linear-gradient);}.cls-2{fill:url(#linear-gradient-2);}.cls-3{fill:url(#linear-gradient-3);}.cls-4{fill:url(#linear-gradient-4);}.cls-5{fill:url(#linear-gradient-5);}.cls-6{fill:url(#linear-gradient-6);}.cls-7{fill:url(#linear-gradient-7);}.cls-8{fill:url(#linear-gradient-8);}.cls-9{fill:url(#linear-gradient-9);}.cls-10{fill:url(#linear-gradient-10);}</style><linearGradient id="linear-gradient" x1="55.89" y1="5.65" x2="2.52" y2="59.02" gradientUnits="userSpaceOnUse"><stop offset="0" stop-color="#d6c29c"/><stop offset="1" stop-color="#a68445"/></linearGradient><linearGradient id="linear-gradient-2" x1="34.83" y1="29.42" x2="32.46" y2="31.8" xlink:href="#linear-gradient"/><linearGradient id="linear-gradient-3" x1="34.83" y1="36.85" x2="32.46" y2="39.22" xlink:href="#linear-gradient"/><linearGradient id="linear-gradient-4" x1="34.83" y1="44.27" x2="32.46" y2="46.64" xlink:href="#linear-gradient"/><linearGradient id="linear-gradient-5" x1="42.1" y1="29.43" x2="39.76" y2="31.78" xlink:href="#linear-gradient"/><linearGradient id="linear-gradient-6" x1="43.89" y1="36.64" x2="41.54" y2="38.99" xlink:href="#linear-gradient"/><linearGradient id="linear-gradient-7" x1="45.67" y1="43.85" x2="43.32" y2="46.19" xlink:href="#linear-gradient"/><linearGradient id="linear-gradient-8" x1="24" y1="43.83" x2="21.61" y2="46.22" xlink:href="#linear-gradient"/><linearGradient id="linear-gradient-9" x1="27.56" y1="29.41" x2="25.17" y2="31.8" xlink:href="#linear-gradient"/><linearGradient id="linear-gradient-10" x1="25.78" y1="36.62" x2="23.39" y2="39.01" xlink:href="#linear-gradient"/></defs><title>ico-banheiros</title><g id="Layer_2" data-name="Layer 2"><g id="Layer_1-2" data-name="Layer 1"><path class="cls-1" d="M44.92,0A12.89,12.89,0,0,0,32.14,11.37,12.89,12.89,0,0,0,20.77,24.15a1.6,1.6,0,0,0,1.61,1.6H44.92a1.6,1.6,0,0,0,1.61-1.6A12.9,12.9,0,0,0,35.38,11.4a9.66,9.66,0,0,1,19.21,1.48v41.3a2.41,2.41,0,0,1-2.41,2.41H5.62a2.41,2.41,0,0,1-2.41-2.41V11.1A2.41,2.41,0,0,1,5.62,8.69H28.29a1.61,1.61,0,1,0,0-3.21H5.62A5.62,5.62,0,0,0,0,11.1V54.18A5.62,5.62,0,0,0,5.62,59.8H52.18a5.62,5.62,0,0,0,5.62-5.62V12.88A12.9,12.9,0,0,0,44.92,0ZM43.18,22.54H24.11a9.67,9.67,0,0,1,19.07,0Z"/><path class="cls-2" d="M33.65,32.32a1.6,1.6,0,0,0,1.6-1.61v-.2a1.61,1.61,0,1,0-3.21,0v.2A1.61,1.61,0,0,0,33.65,32.32Z"/><path class="cls-3" d="M32,38.13a1.61,1.61,0,1,0,3.21,0v-.2a1.61,1.61,0,0,0-3.21,0Z"/><path class="cls-4" d="M32,45.56a1.61,1.61,0,1,0,3.21,0v-.2a1.61,1.61,0,1,0-3.21,0Z"/><path class="cls-5" d="M42.47,30.13a1.61,1.61,0,1,0-3.12.76l0,.2A1.6,1.6,0,0,0,41,32.31a1.74,1.74,0,0,0,.39-.05,1.59,1.59,0,0,0,1.17-1.94Z"/><path class="cls-6" d="M44.25,37.33a1.61,1.61,0,0,0-3.12.77l0,.19a1.6,1.6,0,0,0,1.56,1.23,1.73,1.73,0,0,0,.38-.05,1.61,1.61,0,0,0,1.18-1.94Z"/><path class="cls-7" d="M42.91,45.31l.05.2a1.61,1.61,0,0,0,1.56,1.22,1.74,1.74,0,0,0,.39,0,1.62,1.62,0,0,0,1.17-2l0-.19a1.61,1.61,0,0,0-3.12.77Z"/><path class="cls-8" d="M21.27,44.54l-.05.19a1.61,1.61,0,0,0,1.17,2,1.74,1.74,0,0,0,.39,0,1.6,1.6,0,0,0,1.55-1.22l.05-.2a1.6,1.6,0,1,0-3.11-.77Z"/><path class="cls-9" d="M26,32.26a1.73,1.73,0,0,0,.38.05,1.6,1.6,0,0,0,1.56-1.22l.05-.2a1.61,1.61,0,1,0-3.12-.76l0,.19A1.61,1.61,0,0,0,26,32.26Z"/><path class="cls-10" d="M23.05,37.33l-.05.2a1.61,1.61,0,0,0,1.18,1.94,1.65,1.65,0,0,0,.38.05,1.61,1.61,0,0,0,1.56-1.23l.05-.19a1.61,1.61,0,0,0-3.12-.77Z"/></g></g></svg>