<svg xmlns="http://www.w3.org/2000/svg" xmlns:xlink="http://www.w3.org/1999/xlink" viewBox="0 0 101.01 51.14"><defs><style>.cls-1{fill:url(#linear-gradient);}.cls-2{fill:url(#linear-gradient-2);}.cls-3{fill:url(#linear-gradient-3);}</style><linearGradient id="linear-gradient" x1="60.12" y1="5.5" x2="7.71" y2="57.91" gradientUnits="userSpaceOnUse"><stop offset="0" stop-color="#d6c29c"/><stop offset="1" stop-color="#a68445"/></linearGradient><linearGradient id="linear-gradient-2" x1="103.3" y1="13.58" x2="68.91" y2="47.96" xlink:href="#linear-gradient"/><linearGradient id="linear-gradient-3" x1="87.47" y1="32.51" x2="84.79" y2="35.2" xlink:href="#linear-gradient"/></defs><title>ico-dormitorios</title><g id="Layer_2" data-name="Layer 2"><g id="Layer_1-2" data-name="Layer 1"><path class="cls-1" d="M61.48,24H58.34V6.35A6.36,6.36,0,0,0,52,0H15.84A6.36,6.36,0,0,0,9.49,6.35V24H6.35A6.36,6.36,0,0,0,0,30.31V49.53a1.61,1.61,0,1,0,3.21,0v-9H9.49v4a1.61,1.61,0,1,0,3.21,0v-4H55.13v4a1.61,1.61,0,1,0,3.21,0v-4h6.28v9a1.61,1.61,0,1,0,3.21,0V30.31A6.36,6.36,0,0,0,61.48,24ZM12.7,6.35a3.15,3.15,0,0,1,3.14-3.14H52a3.15,3.15,0,0,1,3.14,3.14V24H47.42V16.43a7.31,7.31,0,0,0-7.3-7.3H27.71a7.31,7.31,0,0,0-7.3,7.3V24H12.7ZM23.62,24V16.43a4.09,4.09,0,0,1,4.09-4.08H40.12a4.09,4.09,0,0,1,4.09,4.08V24ZM3.21,37.29v-7a3.15,3.15,0,0,1,3.14-3.14H61.48a3.15,3.15,0,0,1,3.14,3.14v7Z"/><path class="cls-2" d="M94.66,24H87.74V18.63h3.12a4.44,4.44,0,0,0,4.25-5.76l-3-9.73A4.43,4.43,0,0,0,87.87,0H84.4a4.43,4.43,0,0,0-4.26,3.14l-3,9.73h0a4.44,4.44,0,0,0,4.25,5.76h3.13V24h-7a6.36,6.36,0,0,0-6.35,6.35V49.53a1.61,1.61,0,1,0,3.21,0V43.75H97.8v5.78a1.61,1.61,0,1,0,3.21,0V30.31A6.36,6.36,0,0,0,94.66,24ZM81.4,15.42a1.24,1.24,0,0,1-1.18-1.61l3-9.72a1.23,1.23,0,0,1,1.19-.88h3.47a1.23,1.23,0,0,1,1.18.88l3,9.72a1.28,1.28,0,0,1-.19,1.11,1.23,1.23,0,0,1-1,.5H87.74V13.25a1.61,1.61,0,0,0-3.21,0v2.17Zm-7,25.12V30.31a3.15,3.15,0,0,1,3.14-3.14H94.66a3.15,3.15,0,0,1,3.14,3.14V40.54Z"/><path class="cls-3" d="M86.13,32a1.9,1.9,0,1,0,1.9,1.9A1.9,1.9,0,0,0,86.13,32Z"/></g></g></svg>