<svg xmlns="http://www.w3.org/2000/svg" xmlns:xlink="http://www.w3.org/1999/xlink" viewBox="0 0 27.2 50"><defs><style>.cls-1{fill:url(#linear-gradient);}</style><linearGradient id="linear-gradient" x1="15.17" y1="12.03" x2="-10.75" y2="37.95" gradientUnits="userSpaceOnUse"><stop offset="0" stop-color="#d6c29c"/><stop offset="1" stop-color="#a68445"/></linearGradient></defs><title>arrow-right-dourado</title><g id="Layer_2" data-name="Layer 2"><g id="Layer_1-2" data-name="Layer 1"><path class="cls-1" d="M2.23,50a2.12,2.12,0,0,0,1.56-.67L26.56,26.56a2.26,2.26,0,0,0,0-3.15L3.79.64A2.26,2.26,0,0,0,.64.64a2.26,2.26,0,0,0,0,3.15L21.29,24.43a.83.83,0,0,1,0,1.15L.68,46.22a2.25,2.25,0,0,0,0,3.15A2.22,2.22,0,0,0,2.23,50"/></g></g></svg>