<svg xmlns="http://www.w3.org/2000/svg" viewBox="0 0 38.58 30">
    <path fill="currentColor" d="M34.58,0H4A4,4,0,0,0,0,4V26a4,4,0,0,0,4,4H34.58a4,4,0,0,0,4-4V4A4,4,0,0,0,34.58,0ZM17.68,24.78a2,2,0,0,1-2,2H5.22a2,2,0,0,1-2-2V18.61a2,2,0,0,1,2-2H15.68a2,2,0,0,1,2,2Zm0-13.39a2,2,0,0,1-2,2H5.22a2,2,0,0,1-2-2V5.22a2,2,0,0,1,2-2H15.68a2,2,0,0,1,2,2ZM35.36,24.78a2,2,0,0,1-2,2H22.9a2,2,0,0,1-2-2V18.61a2,2,0,0,1,2-2H33.36a2,2,0,0,1,2,2Zm0-13.39a2,2,0,0,1-2,2H22.9a2,2,0,0,1-2-2V5.22a2,2,0,0,1,2-2H33.36a2,2,0,0,1,2,2Z"></path>
</svg>