<svg xmlns="http://www.w3.org/2000/svg" xmlns:xlink="http://www.w3.org/1999/xlink" viewBox="0 0 83.1 52.26"><defs><style>.cls-1{fill:url(#linear-gradient);}.cls-2{fill:url(#linear-gradient-2);}.cls-3{fill:url(#linear-gradient-3);}</style><linearGradient id="linear-gradient" x1="62.66" y1="11.28" x2="18.51" y2="55.44" gradientUnits="userSpaceOnUse"><stop offset="0" stop-color="#d6c29c"/><stop offset="1" stop-color="#a68445"/></linearGradient><linearGradient id="linear-gradient-2" x1="35.15" y1="17.11" x2="17.11" y2="35.15" xlink:href="#linear-gradient"/><linearGradient id="linear-gradient-3" x1="45.72" y1="37.3" x2="37.4" y2="45.62" xlink:href="#linear-gradient"/></defs><title>ico-area-privativa</title><g id="Layer_2" data-name="Layer 2"><g id="Layer_1-2" data-name="Layer 1"><path class="cls-1" d="M79.89,29.84H52.26V27H53.4A5.62,5.62,0,0,0,59,21.34V17.63A5.62,5.62,0,0,0,53.4,12H48.1a26.12,26.12,0,1,0-22,40.25H46.64A5.64,5.64,0,0,0,52.09,48h27.8v.8a1.61,1.61,0,1,0,3.21,0V33.05A3.21,3.21,0,0,0,79.89,29.84ZM53.4,15.22a2.41,2.41,0,0,1,2.41,2.41v3.71a2.41,2.41,0,0,1-2.41,2.41H52.15a26,26,0,0,0-2.29-8.53ZM49.05,46.64a2.41,2.41,0,0,1-2.41,2.41H26.13A22.92,22.92,0,1,1,49.05,26.13v5.31h0V46.64Zm26.83-1.85V42.68a1.61,1.61,0,0,0-3.21,0v2.11H67.85V39.47a1.61,1.61,0,0,0-3.21,0v5.32H59.83V42.68a1.61,1.61,0,0,0-3.22,0v2.11H52.26V33.05H79.89v.8h0V44.79Z"/><path class="cls-2" d="M26.13,13.37A12.76,12.76,0,1,0,38.89,26.13,12.77,12.77,0,0,0,26.13,13.37Zm0,22.31a9.55,9.55,0,1,1,9.55-9.55A9.56,9.56,0,0,1,26.13,35.68Z"/><path class="cls-3" d="M41.56,35.58a5.88,5.88,0,1,0,5.88,5.88A5.88,5.88,0,0,0,41.56,35.58Zm0,8.55a2.67,2.67,0,1,1,2.67-2.67A2.68,2.68,0,0,1,41.56,44.13Z"/></g></g></svg>