<svg xmlns="http://www.w3.org/2000/svg"
    xmlns:xlink="http://www.w3.org/1999/xlink" viewBox="0 0 81.94 60">
    <defs>
        <style>.cls-1{fill:url(#linear-gradient);}.cls-2{fill:url(#linear-gradient-2);}</style>
        <linearGradient id="linear-gradient" x1="68.51" y1="17.43" x2="13.44" y2="72.5" gradientUnits="userSpaceOnUse">
            <stop offset="0" stop-color="#d6c29c"/>
            <stop offset="1" stop-color="#a68445"/>
        </linearGradient>
        <linearGradient id="linear-gradient-2" x1="50.17" y1="-2.74" x2="31.78" y2="15.65" xlink:href="#linear-gradient"/>
    </defs>
    <title>ico-suites</title>
    <g id="Layer_2" data-name="Layer 2">
        <g id="Layer_1-2" data-name="Layer 1">
            <path class="cls-1" d="M73.92,37v-9.5A11.26,11.26,0,0,0,62.68,16.25H19.27A11.26,11.26,0,0,0,8,27.49V37A11.26,11.26,0,0,0,0,47.76V58.4a1.61,1.61,0,0,0,3.21,0V51H8v3.17a1.61,1.61,0,1,0,3.21,0V51H70.71v3.17a1.61,1.61,0,1,0,3.21,0V51h4.81V58.4a1.61,1.61,0,0,0,3.21,0V47.76A11.27,11.27,0,0,0,73.92,37Zm-62.68-9.5a8,8,0,0,1,8-8H62.68a8,8,0,0,1,8,8v9H65.92V30.4A6.43,6.43,0,0,0,59.5,24H49.8a6.43,6.43,0,0,0-6.42,6.42v6.12H38.56V30.4A6.43,6.43,0,0,0,32.14,24h-9.7A6.43,6.43,0,0,0,16,30.4v6.12H11.24Zm35.35,9V30.4a3.21,3.21,0,0,1,3.21-3.21h9.7a3.21,3.21,0,0,1,3.21,3.21v6.12Zm-27.36,0V30.4a3.21,3.21,0,0,1,3.21-3.21h9.7a3.21,3.21,0,0,1,3.21,3.21v6.12ZM3.21,47.8v0a8,8,0,0,1,8-8H70.71a8,8,0,0,1,8,8v0Z"/>
            <path class="cls-2" d="M31.31,13.85H50.64a3.21,3.21,0,0,0,3.21-3.21v-9A1.62,1.62,0,0,0,53,.17,1.6,1.6,0,0,0,51.3.31L46.59,3.73,41.92.31a1.62,1.62,0,0,0-1.9,0L35.35,3.73,30.64.31A1.6,1.6,0,0,0,29,.17a1.62,1.62,0,0,0-.88,1.44v9A3.22,3.22,0,0,0,31.31,13.85Zm0-9.09L34.41,7A1.59,1.59,0,0,0,36.3,7L41,3.6,45.64,7a1.61,1.61,0,0,0,1.9,0l3.1-2.26v5.88H31.31Z"/>
        </g>
    </g>
</svg>