<svg xmlns="http://www.w3.org/2000/svg" xmlns:xlink="http://www.w3.org/1999/xlink" viewBox="0 0 109.87 43.32"><defs><style>.cls-1{fill:url(#linear-gradient);}.cls-2{fill:url(#linear-gradient-2);}</style><linearGradient id="linear-gradient" x1="83.59" y1="9.07" x2="26.29" y2="66.36" gradientUnits="userSpaceOnUse"><stop offset="0" stop-color="#d6c29c"/><stop offset="1" stop-color="#a68445"/></linearGradient><linearGradient id="linear-gradient-2" x1="86.49" y1="-7.37" x2="28.19" y2="50.93" xlink:href="#linear-gradient"/></defs><title>ico-garagem</title><g id="Layer_2" data-name="Layer 2"><g id="Layer_1-2" data-name="Layer 1"><path class="cls-1" d="M108.78,34.59a1,1,0,0,0-.13-.16l-4.51-4.81a1.61,1.61,0,0,0-2.34,2.2l4.43,4.72a2.23,2.23,0,0,1,.28,2.11,2.38,2.38,0,0,1-2.21,1.45H5.57a2.4,2.4,0,0,1-2.21-1.45,2.23,2.23,0,0,1,.29-2.12l2.9-3.18a1.61,1.61,0,0,0-2.37-2.17l-3,3.26a.79.79,0,0,0-.12.15,5.44,5.44,0,0,0-.67,5.34,5.62,5.62,0,0,0,5.15,3.39H104.3a5.63,5.63,0,0,0,5.16-3.39A5.47,5.47,0,0,0,108.78,34.59Z"/><path class="cls-2" d="M11.81,31.36h7a9.75,9.75,0,0,0,17,0H74.5a9.75,9.75,0,0,0,17,0c4.71-.05,8.33-1.3,10.73-3.72C106,23.78,106,18,106,13.77v-1a1.6,1.6,0,0,0-1.6-1.6c-9,0-14.36-2.81-19-5.29-1.4-.74-2.72-1.44-4.07-2A48,48,0,0,0,61.88,0c-10.37,0-19,3-25.55,8.93-.81-.07-1.64-.12-2.52-.12C8.62,8.81,6.35,27,6.33,27.17a.91.91,0,0,0,0,.17,3.72,3.72,0,0,0,1,2.77C8.52,31.26,10.23,31.36,11.81,31.36ZM27.34,33.1a6.56,6.56,0,1,1,6.56-6.56A6.56,6.56,0,0,1,27.34,33.1ZM83,33.1a6.56,6.56,0,1,1,6.56-6.56A6.56,6.56,0,0,1,83,33.1ZM61.88,3.21A44.88,44.88,0,0,1,80,6.78c1.24.54,2.51,1.21,3.85,1.93l1.56.81c-7.36,3.42-16.76,4-22.65,4l1.09-4.27A1.6,1.6,0,1,0,60.7,8.5l-1.28,5h-.67l-1.22,0a33.54,33.54,0,0,1-11.8-2.33c-1.66-.56-3.34-1.12-5.19-1.56C46.24,5.37,53.4,3.21,61.88,3.21ZM33.81,12a31.58,31.58,0,0,1,10.89,2.2,36.77,36.77,0,0,0,12.83,2.5l1.15,0c.84,0,2,0,3.28,0,6.61,0,18.45-.61,27-5.53a37,37,0,0,0,13.79,3.09c0,3.76-.08,8.26-2.82,11-1.6,1.61-4.06,2.53-7.31,2.74a10.05,10.05,0,0,0,.13-1.56,9.77,9.77,0,1,0-19.54,0,9.42,9.42,0,0,0,.14,1.6H37a9.42,9.42,0,0,0,.14-1.6,9.77,9.77,0,1,0-19.54,0,9.42,9.42,0,0,0,.14,1.6H12.27c-.86,0-2.31,0-2.64-.31a.65.65,0,0,1-.1-.4C9.71,26.21,12.32,12,33.81,12Z"/></g></g></svg>