<svg xmlns="http://www.w3.org/2000/svg" xmlns:xlink="http://www.w3.org/1999/xlink" viewBox="0 0 39.07 45"><defs><style>.cls-1{fill:url(#linear-gradient);}.cls-2{fill:url(#linear-gradient-2);}.cls-3{fill:url(#linear-gradient-3);}.cls-4{fill:url(#linear-gradient-4);}.cls-5{fill:url(#linear-gradient-5);}.cls-6{fill:url(#linear-gradient-6);}.cls-7{fill:url(#linear-gradient-7);}.cls-8{fill:url(#linear-gradient-8);}.cls-9{fill:url(#linear-gradient-9);}.cls-10{fill:url(#linear-gradient-10);}.cls-11{fill:url(#linear-gradient-11);}.cls-12{fill:url(#linear-gradient-12);}.cls-13{fill:url(#linear-gradient-13);}</style><linearGradient id="linear-gradient" x1="11.62" y1="23.07" x2="3.33" y2="31.36" gradientUnits="userSpaceOnUse"><stop offset="0" stop-color="#d6c29c"/><stop offset="1" stop-color="#a68445"/></linearGradient><linearGradient id="linear-gradient-2" x1="8.63" y1="29.16" x2="2.18" y2="35.6" xlink:href="#linear-gradient"/><linearGradient id="linear-gradient-3" x1="8.64" y1="34.66" x2="2.19" y2="41.11" xlink:href="#linear-gradient"/><linearGradient id="linear-gradient-4" x1="35.75" y1="23.06" x2="27.46" y2="31.35" xlink:href="#linear-gradient"/><linearGradient id="linear-gradient-5" x1="38.95" y1="27.09" x2="28.37" y2="37.67" xlink:href="#linear-gradient"/><linearGradient id="linear-gradient-6" x1="38.95" y1="32.6" x2="28.37" y2="43.18" xlink:href="#linear-gradient"/><linearGradient id="linear-gradient-7" x1="23.94" y1="21" x2="15.13" y2="29.8" xlink:href="#linear-gradient"/><linearGradient id="linear-gradient-8" x1="25.12" y1="22.85" x2="13.96" y2="34.01" xlink:href="#linear-gradient"/><linearGradient id="linear-gradient-9" x1="25.12" y1="28.23" x2="13.96" y2="39.39" xlink:href="#linear-gradient"/><linearGradient id="linear-gradient-10" x1="25.12" y1="33.76" x2="13.96" y2="44.92" xlink:href="#linear-gradient"/><linearGradient id="linear-gradient-11" x1="27.83" y1="6.91" x2="11.24" y2="23.5" xlink:href="#linear-gradient"/><linearGradient id="linear-gradient-12" x1="23.19" y1="8.72" x2="15.93" y2="15.98" xlink:href="#linear-gradient"/><linearGradient id="linear-gradient-13" x1="23.53" y1="8.38" x2="15.59" y2="16.32" xlink:href="#linear-gradient"/></defs><title>ico-anuncie</title><g id="Layer_2" data-name="Layer 2"><g id="Layer_1-2" data-name="Layer 1"><path class="cls-1" d="M8,30.52c-3.68,0-8-.87-8-3.31S4.3,23.9,8,23.9a18,18,0,0,1,5.13.67l-.71,2.3A16.1,16.1,0,0,0,8,26.32a12.82,12.82,0,0,0-5.29.89,12.6,12.6,0,0,0,5.29.9,15.76,15.76,0,0,0,4.44-.57l.71,2.31A18.13,18.13,0,0,1,8,30.52Z"/><path class="cls-2" d="M8,35.9c-3.68,0-8-.86-8-3.3V27.21L2.41,29v3.46c.47.4,2.44,1.07,5.57,1.07a15.64,15.64,0,0,0,4.42-.56l.71,2.31A18,18,0,0,1,8,35.9Z"/><path class="cls-3" d="M8,41.42c-3.68,0-8-.87-8-3.31V32.72l2.41,1.75v3.46C2.88,38.33,4.85,39,8,39a15.79,15.79,0,0,0,4.44-.56l.71,2.31A18.13,18.13,0,0,1,8,41.42Z"/><path class="cls-4" d="M31.09,30.52A18.42,18.42,0,0,1,26,29.86l.71-2.31a16.07,16.07,0,0,0,4.42.56,12.56,12.56,0,0,0,5.29-.9,12.78,12.78,0,0,0-5.29-.89,15.84,15.84,0,0,0-4.44.56l-.71-2.31a18.13,18.13,0,0,1,5.15-.67c3.68,0,8,.87,8,3.31S34.77,30.52,31.09,30.52Z"/><path class="cls-5" d="M31.09,35.9a17.78,17.78,0,0,1-5.15-.67l.71-2.3a15.84,15.84,0,0,0,4.44.56c3.13,0,5.11-.67,5.57-1.07V29l2.41-1.75V32.6C39.07,35,34.77,35.9,31.09,35.9Z"/><path class="cls-6" d="M31.09,41.42a18.13,18.13,0,0,1-5.15-.67l.72-2.31a15.72,15.72,0,0,0,4.43.56c3.13,0,5.11-.67,5.57-1.07V34.47l2.41-1.75v5.39C39.07,40.55,34.77,41.42,31.09,41.42Z"/><path class="cls-7" d="M19.54,28.71c-3.69,0-8-.87-8-3.31s4.3-3.31,8-3.31,8,.87,8,3.31S23.22,28.71,19.54,28.71Zm-5.3-3.31a12.88,12.88,0,0,0,5.3.89,12.78,12.78,0,0,0,5.29-.89,12.78,12.78,0,0,0-5.29-.89A12.88,12.88,0,0,0,14.24,25.4Z"/><path class="cls-8" d="M19.54,34.09c-3.69,0-8-.86-8-3.31V25.4c0-.67.54.54,1.21.54A1.21,1.21,0,0,1,14,27.15V30.6c.46.4,2.43,1.08,5.57,1.08s5.11-.68,5.57-1.08V27.15a1.21,1.21,0,0,1,1.2-1.21c.67,0,1.21-1.21,1.21-.54v5.38C27.52,33.23,23.22,34.09,19.54,34.09Z"/><path class="cls-9" d="M19.54,39.48c-3.69,0-8-.87-8-3.31V30.78c0-.66.54.54,1.21.54A1.21,1.21,0,0,1,14,32.53V36c.46.4,2.43,1.07,5.57,1.07s5.11-.67,5.57-1.07V32.53a1.21,1.21,0,0,1,1.2-1.21c.67,0,1.21-1.2,1.21-.54v5.39C27.52,38.61,23.22,39.48,19.54,39.48Z"/><path class="cls-10" d="M19.54,45c-3.69,0-8-.87-8-3.31V36.31c0-.67.54.54,1.21.54A1.21,1.21,0,0,1,14,38.06v3.45c.46.4,2.43,1.08,5.57,1.08s5.11-.68,5.57-1.08V38.06a1.21,1.21,0,0,1,1.2-1.21c.67,0,1.21-1.21,1.21-.54v5.38C27.52,44.13,23.22,45,19.54,45Z"/><path class="cls-11" d="M26.45,23.69H12.62a2.88,2.88,0,0,1-2.87-2.87V15.09a2.88,2.88,0,0,1-2.33-1.71,2.83,2.83,0,0,1,.43-3.07L8,10.14,17.23.92a3.34,3.34,0,0,1,4.61,0l9.23,9.23.15.17a2.83,2.83,0,0,1,.44,3.06,2.9,2.9,0,0,1-2.34,1.71v5.73A2.88,2.88,0,0,1,26.45,23.69ZM19.54,2.38a.84.84,0,0,0-.6.25L9.72,11.85a.46.46,0,0,0-.11.53.53.53,0,0,0,.48.32H11a1.21,1.21,0,0,1,1.21,1.21v6.91a.45.45,0,0,0,.45.45H26.45a.46.46,0,0,0,.46-.45V13.91a1.21,1.21,0,0,1,1.2-1.21H29a.52.52,0,0,0,.48-.32.42.42,0,0,0-.06-.48h0l0,0L20.14,2.63A.86.86,0,0,0,19.54,2.38Z"/><path class="cls-12" d="M19.51,17.88A4.27,4.27,0,0,1,18,17.63a3.3,3.3,0,0,1-1.92-1.76.47.47,0,0,1,0-.33.36.36,0,0,1,.23-.22.39.39,0,0,1,.3,0,.46.46,0,0,1,.2.23,2.42,2.42,0,0,0,1,1.08,3.21,3.21,0,0,0,1.66.4,3.45,3.45,0,0,0,1.39-.26,2,2,0,0,0,.91-.74,2.12,2.12,0,0,0,.32-1.18,2.33,2.33,0,0,0-.63-1.65,3.22,3.22,0,0,0-1.95-.86,4.82,4.82,0,0,1-1.63-.56,2.9,2.9,0,0,1-1.08-1,2.69,2.69,0,0,1-.39-1.45,2.38,2.38,0,0,1,.42-1.42A2.56,2.56,0,0,1,18,7a4.13,4.13,0,0,1,1.66-.31A3.54,3.54,0,0,1,21,6.91a3.82,3.82,0,0,1,1,.62,2.64,2.64,0,0,1,.65.8.43.43,0,0,1,.05.33.33.33,0,0,1-.2.24.41.41,0,0,1-.29,0A.44.44,0,0,1,22,8.73a2.83,2.83,0,0,0-.8-.83,2.55,2.55,0,0,0-1.49-.39A3,3,0,0,0,17.93,8a1.59,1.59,0,0,0-.64,1.4,2.19,2.19,0,0,0,.23,1,1.91,1.91,0,0,0,.74.79,4,4,0,0,0,1.42.52,4.44,4.44,0,0,1,2.49,1.11A2.88,2.88,0,0,1,23,14.87a3.13,3.13,0,0,1-.25,1.25,2.67,2.67,0,0,1-.71.95,3.15,3.15,0,0,1-1.1.6A4.55,4.55,0,0,1,19.51,17.88Zm.1,1.24a.29.29,0,0,1-.22-.09.41.41,0,0,1-.08-.28V6a.39.39,0,0,1,.08-.29.33.33,0,0,1,.22-.08.32.32,0,0,1,.21.08.39.39,0,0,1,.09.29V18.75a.41.41,0,0,1-.09.28A.29.29,0,0,1,19.61,19.12Z"/><path class="cls-13" d="M19.61,19.6a.77.77,0,0,1-.57-.25.87.87,0,0,1-.22-.6v-.44a4.25,4.25,0,0,1-.95-.23,4,4,0,0,1-1.32-.8,3.68,3.68,0,0,1-.87-1.22.9.9,0,0,1,0-.7.86.86,0,0,1,.53-.49.82.82,0,0,1,.67,0,1,1,0,0,1,.42.46,1.9,1.9,0,0,0,.8.86,2.2,2.2,0,0,0,.73.27V12.69a5.65,5.65,0,0,1-1.15-.47A3.57,3.57,0,0,1,16.43,11,3.2,3.2,0,0,1,16,9.32a2.94,2.94,0,0,1,.5-1.7,3,3,0,0,1,1.36-1.07,4.54,4.54,0,0,1,1-.29V6a.85.85,0,0,1,.23-.63.82.82,0,0,1,1.11,0,.85.85,0,0,1,.23.63v.25a3.27,3.27,0,0,1,.74.21,4.11,4.11,0,0,1,1.17.69,3.3,3.3,0,0,1,.78,1,.93.93,0,0,1,.07.66.82.82,0,0,1-.46.56.86.86,0,0,1-.65,0A.92.92,0,0,1,21.57,9a2.27,2.27,0,0,0-.68-.71,1.52,1.52,0,0,0-.5-.22v3.22a4.5,4.5,0,0,1,2.13,1.11,3.42,3.42,0,0,1,.95,2.47,3.57,3.57,0,0,1-.29,1.45,3.3,3.3,0,0,1-.84,1.12,3.65,3.65,0,0,1-1.26.69,5,5,0,0,1-.69.16v.46a.86.86,0,0,1-.21.6A.79.79,0,0,1,19.61,19.6Zm.78-6.54v3.4a1.73,1.73,0,0,0,.32-.11,1.58,1.58,0,0,0,.7-.56,1.66,1.66,0,0,0,.24-.92,1.83,1.83,0,0,0-.51-1.32A2,2,0,0,0,20.39,13.06Zm-1.57-5a1.8,1.8,0,0,0-.61.27,1.09,1.09,0,0,0-.43,1,1.65,1.65,0,0,0,.17.75,1.61,1.61,0,0,0,.57.6,2.14,2.14,0,0,0,.3.17Z"/></g></g></svg>