<svg xmlns="http://www.w3.org/2000/svg" xmlns:xlink="http://www.w3.org/1999/xlink" viewBox="0 0 39.97 39.97"><defs><style>.cls-1{fill:url(#linear-gradient);}</style><linearGradient id="linear-gradient" x1="36.26" y1="8.03" x2="8.01" y2="36.28" gradientUnits="userSpaceOnUse"><stop offset="0" stop-color="#d6c29c"/><stop offset="1" stop-color="#a68445"/></linearGradient></defs><title>ico-contato</title><g id="Layer_2" data-name="Layer 2"><g id="Layer_1-2" data-name="Layer 1"><path class="cls-1" d="M19.84,40a19.27,19.27,0,0,1-9.56-2.52h0A19.82,19.82,0,0,1,.58,15.21c.07-.3.14-.57.22-.87A20.1,20.1,0,0,1,23.05.23c.47.07,1,.17,1.44.28A20.06,20.06,0,0,1,39.87,18.12a19.36,19.36,0,0,1-3.2,12.78v0c.49,1.63.94,3.21,1.4,4.79l.49,1.71a1.25,1.25,0,0,1-.67,1.48,1.73,1.73,0,0,1-1.31.05l-2.27-.69L30.54,37.1a.42.42,0,0,0-.35,0,19.82,19.82,0,0,1-8.37,2.72C21.15,39.93,20.49,40,19.84,40Zm-8.33-4.7a16.92,16.92,0,0,0,10.08,2.11A17.37,17.37,0,0,0,28.91,35a3,3,0,0,1,2.37-.28L35,35.87l.52.16c-.42-1.47-.85-2.93-1.29-4.39a2.33,2.33,0,0,1,.35-2.15,17,17,0,0,0,2.77-11.13A17.55,17.55,0,0,0,23.92,3c-.41-.1-.83-.18-1.24-.24A17.55,17.55,0,0,0,3.21,15c-.08.26-.14.5-.2.76A17.37,17.37,0,0,0,11.51,35.27Zm25.13-4.41h0Z"/></g></g></svg>