<svg xmlns="http://www.w3.org/2000/svg" xmlns:xlink="http://www.w3.org/1999/xlink" viewBox="0 0 47.08 31.43"><defs><style>.cls-1{fill:url(#linear-gradient);}</style><linearGradient id="linear-gradient" x1="38.55" y1="-7.92" x2="8.33" y2="22.3" gradientUnits="userSpaceOnUse"><stop offset="0" stop-color="#d6c29c"/><stop offset="1" stop-color="#a68445"/></linearGradient></defs><title>ico-empresa</title><g id="Layer_2" data-name="Layer 2"><g id="Layer_1-2" data-name="Layer 1"><g id="SVGID"><path class="cls-1" d="M17.89,31.43h0a1,1,0,0,1-.89-.52L.14,1.56a1,1,0,0,1,0-1A1,1,0,0,1,1,0H19.89a1,1,0,0,1,.9.52l2.67,4.62L25.89.55A1,1,0,0,1,26.8,0H46a1,1,0,0,1,.9.52,1.07,1.07,0,0,1,0,1L30,30.62a1,1,0,0,1-.9.52,1.06,1.06,0,0,1-.9-.53l-4.54-7.95-4.85,8.26A1.06,1.06,0,0,1,17.89,31.43ZM2.83,2.08,17.9,28.32,22,21.41,19.25,16.9l-.51.74A1,1,0,0,1,17,17.55l-5.59-10A1,1,0,0,1,12.29,6h3.58a1,1,0,0,1,.9.53L29.09,28,44.23,2.08H27.43l-2.38,4.5,2.65,4.57,2.59-4.66A1,1,0,0,1,31.2,6h3.52a1,1,0,0,1,.91,1.56L30,17.45a1.07,1.07,0,0,1-.9.53.93.93,0,0,1-.9-.52L19.29,2.08ZM14.06,8,18,15.08l.48-.69a1.28,1.28,0,0,1,.29-.28L15.27,8Zm14.47,5.86.55,1L32.94,8H31.81l-3.19,5.72Z"/></g></g></g></svg>