<svg xmlns="http://www.w3.org/2000/svg" xmlns:xlink="http://www.w3.org/1999/xlink" viewBox="0 0 45 42.88"><defs><style>.cls-1{fill:url(#linear-gradient);}</style><linearGradient id="linear-gradient" x1="38.22" y1="9.36" x2="6.78" y2="40.81" gradientUnits="userSpaceOnUse"><stop offset="0" stop-color="#d6c29c"/><stop offset="1" stop-color="#a68445"/></linearGradient></defs><title>ico-lancamento</title><g id="Layer_2" data-name="Layer 2"><g id="Layer_1-2" data-name="Layer 1"><path class="cls-1" d="M35.65,42.88a1.2,1.2,0,0,1-.45-.09L22.5,37.66,9.8,42.79a1.21,1.21,0,0,1-1.67-1.21l1-13.67L.28,17.42a1.22,1.22,0,0,1,.64-2l13.29-3.31L21.47.53a1.26,1.26,0,0,1,2.06,0l7.26,11.62,13.29,3.31a1.22,1.22,0,0,1,.64,2L35.91,27.91l1,13.67a1.22,1.22,0,0,1-.5,1.07A1.23,1.23,0,0,1,35.65,42.88ZM22.5,35.13a1.25,1.25,0,0,1,.46.09L34.3,39.8l-.85-12.21a1.22,1.22,0,0,1,.28-.86l7.87-9.38-11.88-3a1.23,1.23,0,0,1-.73-.53L22.5,3.47,16,13.86a1.29,1.29,0,0,1-.74.53l-11.88,3,7.87,9.38a1.22,1.22,0,0,1,.28.86L10.7,39.8,22,35.22A1.25,1.25,0,0,1,22.5,35.13Z"/></g></g></svg>