<svg xmlns="http://www.w3.org/2000/svg" xmlns:xlink="http://www.w3.org/1999/xlink" viewBox="0 0 45 45"><defs><style>.cls-1{fill:url(#linear-gradient);}.cls-2{fill:url(#linear-gradient-2);}.cls-3{fill:url(#linear-gradient-3);}.cls-4{fill:url(#linear-gradient-4);}.cls-5{fill:url(#linear-gradient-5);}</style><linearGradient id="linear-gradient" x1="34.82" y1="10.18" x2="10.18" y2="34.82" gradientUnits="userSpaceOnUse"><stop offset="0" stop-color="#d6c29c"/><stop offset="1" stop-color="#a68445"/></linearGradient><linearGradient id="linear-gradient-2" x1="26.69" y1="3.71" x2="18.31" y2="12.09" xlink:href="#linear-gradient"/><linearGradient id="linear-gradient-3" x1="26.69" y1="32.91" x2="18.31" y2="41.29" xlink:href="#linear-gradient"/><linearGradient id="linear-gradient-4" x1="12.09" y1="18.31" x2="3.71" y2="26.69" xlink:href="#linear-gradient"/><linearGradient id="linear-gradient-5" x1="41.29" y1="18.31" x2="32.91" y2="26.69" xlink:href="#linear-gradient"/></defs><title>ico-encomende</title><g id="Layer_2" data-name="Layer 2"><g id="Layer_1-2" data-name="Layer 1"><path class="cls-1" d="M22.5,39.94A17.44,17.44,0,1,1,39.94,22.5,17.46,17.46,0,0,1,22.5,39.94Zm0-32.58A15.14,15.14,0,1,0,37.64,22.5,15.15,15.15,0,0,0,22.5,7.36Z"/><path class="cls-2" d="M22.5,15.8a1.16,1.16,0,0,1-1.15-1.15V1.15a1.15,1.15,0,1,1,2.3,0v13.5A1.16,1.16,0,0,1,22.5,15.8Z"/><path class="cls-3" d="M22.5,45a1.15,1.15,0,0,1-1.15-1.15V30.35a1.15,1.15,0,1,1,2.3,0v13.5A1.15,1.15,0,0,1,22.5,45Z"/><path class="cls-4" d="M14.65,23.65H1.15a1.15,1.15,0,1,1,0-2.3h13.5a1.15,1.15,0,1,1,0,2.3Z"/><path class="cls-5" d="M43.85,23.65H30.35a1.15,1.15,0,0,1,0-2.3h13.5a1.15,1.15,0,0,1,0,2.3Z"/></g></g></svg>