<svg xmlns="http://www.w3.org/2000/svg" xmlns:xlink="http://www.w3.org/1999/xlink" viewBox="0 0 45 43"><defs><style>.cls-1{fill:url(#linear-gradient);}</style><linearGradient id="linear-gradient" x1="37.52" y1="12.91" x2="7.48" y2="42.95" gradientUnits="userSpaceOnUse"><stop offset="0" stop-color="#d6c29c"/><stop offset="1" stop-color="#a68445"/></linearGradient></defs><title>ico-prontos</title><g id="Layer_2" data-name="Layer 2"><g id="Layer_1-2" data-name="Layer 1"><path class="cls-1" d="M35.68,43H9.32A4.37,4.37,0,0,1,5,38.64v-12H4.5A4.45,4.45,0,0,1,.41,24a4.33,4.33,0,0,1,.65-4.68l.25-.26L18.88,1.5a5.12,5.12,0,0,1,7.24,0L43.69,19.07c.08.09.17.17.24.26h0A4.33,4.33,0,0,1,44.59,24a4.45,4.45,0,0,1-4.09,2.64H40v12A4.37,4.37,0,0,1,35.68,43ZM22.5,2.4a2.69,2.69,0,0,0-1.92.79L3,20.77a1.85,1.85,0,0,0-.14.14A1.92,1.92,0,0,0,2.59,23,2.09,2.09,0,0,0,4.5,24.26H6.16a1.2,1.2,0,0,1,1.2,1.2V38.64a2,2,0,0,0,2,2H35.68a2,2,0,0,0,2-2V25.46a1.2,1.2,0,0,1,1.2-1.2H40.5A2.09,2.09,0,0,0,42.41,23a1.92,1.92,0,0,0-.28-2.1h0L42,20.77,24.42,3.19A2.69,2.69,0,0,0,22.5,2.4Z"/></g></g></svg>