<svg xmlns="http://www.w3.org/2000/svg" xmlns:xlink="http://www.w3.org/1999/xlink" viewBox="0 0 61.91 46.05"><defs><style>.cls-1{fill:url(#linear-gradient);}.cls-2{fill:url(#linear-gradient-2);}.cls-3{fill:url(#linear-gradient-3);}.cls-4{fill:url(#linear-gradient-4);}.cls-5{fill:url(#linear-gradient-5);}.cls-6{fill:url(#linear-gradient-6);}.cls-7{fill:url(#linear-gradient-7);}</style><linearGradient id="linear-gradient" x1="42.93" y1="-6.3" x2="18.89" y2="17.74" gradientUnits="userSpaceOnUse"><stop offset="0" stop-color="#d6c29c"/><stop offset="1" stop-color="#a68445"/></linearGradient><linearGradient id="linear-gradient-2" x1="12.44" y1="34.69" x2="2.11" y2="45.02" xlink:href="#linear-gradient"/><linearGradient id="linear-gradient-3" x1="26.06" y1="36.36" x2="19" y2="43.42" xlink:href="#linear-gradient"/><linearGradient id="linear-gradient-4" x1="35.34" y1="39.57" x2="27.72" y2="47.19" xlink:href="#linear-gradient"/><linearGradient id="linear-gradient-5" x1="42.58" y1="39.69" x2="36.97" y2="45.29" xlink:href="#linear-gradient"/><linearGradient id="linear-gradient-6" x1="54.11" y1="37.01" x2="45.33" y2="45.79" xlink:href="#linear-gradient"/><linearGradient id="linear-gradient-7" x1="61.81" y1="37.74" x2="54.45" y2="45.11" xlink:href="#linear-gradient"/></defs><title>ico-wtalks</title><g id="Layer_2" data-name="Layer 2"><g id="Layer_1-2" data-name="Layer 1"><g id="SVGID"><path class="cls-1" d="M26.5,25h0a.84.84,0,0,1-.71-.41L12.38,1.24a.82.82,0,0,1,0-.83A.84.84,0,0,1,13.09,0h15a.84.84,0,0,1,.72.41l2.12,3.68L32.86.44A.82.82,0,0,1,33.59,0h15.3a.84.84,0,0,1,.72.41.85.85,0,0,1,0,.83L36.12,24.36a.83.83,0,0,1-.72.41.81.81,0,0,1-.71-.42L31.07,18l-3.86,6.56A.81.81,0,0,1,26.5,25Zm-12-23.35,12,20.88L29.74,17l-2.16-3.59-.4.59a.86.86,0,0,1-.72.36.84.84,0,0,1-.68-.43L21.32,6a.85.85,0,0,1,0-.82.83.83,0,0,1,.72-.4h2.84a.84.84,0,0,1,.72.41l9.8,17.14,12-20.64H34.09l-1.9,3.58L34.3,8.87l2.06-3.71a.84.84,0,0,1,.72-.42h2.81a.81.81,0,0,1,.71.41.83.83,0,0,1,0,.82l-4.49,7.91a.81.81,0,0,1-.71.42.75.75,0,0,1-.72-.41L27.61,1.65Zm8.93,4.74L26.57,12l.38-.55a.69.69,0,0,1,.23-.22L24.41,6.39ZM35,11.05l.44.76,3.07-5.42h-.9L35,10.94A.41.41,0,0,1,35,11.05Z"/></g><path class="cls-2" d="M14.55,36.8l-3,9.1H9.31l-2-6.17L5.24,45.9H3L0,36.8H2.18l2.06,6.39L6.38,36.8h2l2.08,6.44,2.12-6.44Z"/><path class="cls-3" d="M21.48,38.51H18.56V36.8h7.93v1.71H23.58V45.9h-2.1Z"/><path class="cls-4" d="M33.62,44H29.39l-.8,1.95H26.43l4.05-9.1h2.08l4.07,9.1H34.42ZM33,42.35l-1.44-3.49-1.44,3.49Z"/><path class="cls-5" d="M37.58,36.8h2.11v7.38h4.56V45.9H37.58Z"/><path class="cls-6" d="M48.75,42.32,47.53,43.6v2.3h-2.1V36.8h2.1v4.25l4-4.25H53.9l-3.77,4.05,4,5H51.66Z"/><path class="cls-7" d="M56,45.76A5.09,5.09,0,0,1,54.34,45l.71-1.59a4.69,4.69,0,0,0,1.4.69,5,5,0,0,0,1.61.26,2.62,2.62,0,0,0,1.32-.26.81.81,0,0,0,.43-.71.66.66,0,0,0-.25-.54,1.92,1.92,0,0,0-.65-.35c-.27-.08-.62-.18-1.07-.28a14.94,14.94,0,0,1-1.71-.5A2.7,2.7,0,0,1,55,40.93a2.12,2.12,0,0,1-.48-1.46A2.5,2.5,0,0,1,55,38a2.92,2.92,0,0,1,1.29-1,5.32,5.32,0,0,1,2.12-.38,6.94,6.94,0,0,1,1.7.21,5.2,5.2,0,0,1,1.46.6l-.65,1.6a5.1,5.1,0,0,0-2.53-.72,2.34,2.34,0,0,0-1.3.29.88.88,0,0,0-.43.75.76.76,0,0,0,.49.7,7.43,7.43,0,0,0,1.49.44,14.7,14.7,0,0,1,1.7.5,2.71,2.71,0,0,1,1.14.78,2.05,2.05,0,0,1,.48,1.44,2.46,2.46,0,0,1-.44,1.42,3,3,0,0,1-1.31,1,5.33,5.33,0,0,1-2.12.37A7.57,7.57,0,0,1,56,45.76Z"/></g></g></svg>